<svg xmlns="http://www.w3.org/2000/svg" version="1.1" xmlns:xlink="http://www.w3.org/1999/xlink" xmlns:svgjs="http://svgjs.dev/svgjs" width="1000" height="1000" viewBox="0 0 1000 1000"><rect width="1000" height="1000" fill="#444444"></rect><g transform="matrix(0.7,0,0,0.7,149.57575772278994,282.1265587044535)"><svg viewBox="0 0 396 247" data-background-color="#444444" preserveAspectRatio="xMidYMid meet" height="623" width="1000" xmlns="http://www.w3.org/2000/svg" xmlns:xlink="http://www.w3.org/1999/xlink"><g id="tight-bounds" transform="matrix(1,0,0,1,0.24000008317841548,-0.09999999999999432)"><svg viewBox="0 0 395.52 247.2" height="247.2" width="395.52"><g><svg></svg></g><g><svg viewBox="0 0 395.52 247.2" height="247.2" width="395.52"><g><g><path xmlns="http://www.w3.org/2000/svg" d="M132.076 219.51h-89.225v-4.651l29.355-11.625 0-36.622 30.226 0v36.622l29.644 11.625zM72.206 43.675h-45.921l-17.356 36.913-7.929 0v-52.898h172.637l0 52.898-7.882 0-17.112-36.913h-46.211l0 36.913h-30.226zM203.573 219.51v-4.651l23.541-11.625 0-36.622h30.517v36.913h30.807c15.501 0 28.773-3.236 39.817-9.708 10.901-6.426 19.348-15.494 25.341-27.205h28.434c-4.653 8.687-10.429 16.438-17.329 23.253-9.378 9.3-20.403 16.566-33.074 21.797-12.71 5.231-26.622 7.847-41.736 7.848zM227.114 43.966l-23.541-11.625v-4.651h88.353c21.701 0 40.205 3.778 55.511 11.335 15.307 7.557 26.99 17.922 35.051 31.098 2.054 3.374 3.845 6.862 5.373 10.465h-34.655c-6.104-11.613-14.847-20.624-26.23-27.031-11.742-6.588-26.041-9.882-42.897-9.882h-26.448v36.913l-30.517 0z" fill="#ffffff" fill-rule="nonzero" stroke="none" stroke-width="1" stroke-linecap="butt" stroke-linejoin="miter" stroke-miterlimit="10" stroke-dasharray="" stroke-dashoffset="0" font-family="none" font-weight="none" font-size="none" text-anchor="none" style="mix-blend-mode: normal" data-fill-palette-color="tertiary"></path></g></g><g transform="matrix(1,0,0,1,0,94.38297684674752)"><svg viewBox="0 0 395.52 58.434046306504946" height="58.434046306504946" width="395.52"><g><svg viewBox="0 0 395.52 58.434046306504946" height="58.434046306504946" width="395.52"><g><svg viewBox="0 0 395.52 58.434046306504946" height="58.434046306504946" width="395.52"><g><svg viewBox="0 0 395.52 58.434046306504946" height="58.434046306504946" width="395.52"><g><svg viewBox="0 0 395.52 58.434046306504946" height="58.434046306504946" width="395.52"><g><svg viewBox="0 0 395.52 58.434046306504946" height="58.434046306504946" width="395.52"><g transform="matrix(1,0,0,1,0,0)"><svg width="395.52" viewBox="2.1500000953674316 -33 226.74000549316406 33.5" height="58.434046306504946" data-palette-color="#ffffff"><path d="M24.7 0L9.35 0 9.35-0.8 14.4-2.8 14.4-30.25 6.5-30.25 2.95-22.7 2.15-22.7 2.15-33 31.85-33 31.85-22.7 31.05-22.7 27.55-30.25 19.6-30.25 19.6-2.8 24.7-0.8 24.7 0ZM51.7 0.5L51.7 0.5Q47.5 0.5 44.25-1.38 41-3.25 39.12-6.53 37.25-9.8 37.25-14L37.25-14Q37.25-18.2 39.12-21.5 41-24.8 44.25-26.68 47.5-28.55 51.7-28.55L51.7-28.55Q55.9-28.55 59.17-26.68 62.45-24.8 64.32-21.5 66.2-18.2 66.2-14L66.2-14Q66.2-9.8 64.32-6.53 62.45-3.25 59.17-1.38 55.9 0.5 51.7 0.5ZM52.5-2L52.5-2Q56.55-2 58.85-4.95 61.15-7.9 61.15-12.75L61.15-12.75Q61.15-16.7 59.87-19.7 58.6-22.7 56.3-24.38 54-26.05 51.05-26.05L51.05-26.05Q47.05-26.05 44.67-23.13 42.3-20.2 42.3-15.4L42.3-15.4Q42.3-11.4 43.6-8.4 44.9-5.4 47.2-3.7 49.5-2 52.5-2ZM82.45 0L72.25 0 72.25-0.8 75.8-2.45 76.75-25.55 72.9-27.2 72.9-28 82.55-28 91.7-7.5 101.15-28 110.35-28 110.35-27.2 106.65-25.85 107.34-2.45 110.55-0.8 110.55 0 98.95 0 98.95-0.8 102.3-2.4 101.84-23.15 91.1 0.2 89.6 0.2 79.3-23.1 78.8-2.4 82.45-0.8 82.45 0ZM143.69 0L128.84 0 128.84-0.8 132.89-2.8 132.89-30.2 128.84-32.2 128.84-33 144.04-33Q149.64-33 153.59-31.05 157.54-29.1 159.62-25.7 161.69-22.3 161.69-18L161.69-18Q161.69-14.1 160.34-10.8 158.99-7.5 156.57-5.1 154.14-2.7 150.87-1.35 147.59 0 143.69 0L143.69 0ZM142.69-30.25L142.69-30.25 138.14-30.25 138.14-2.75 143.44-2.75Q147.44-2.75 150.29-4.42 153.14-6.1 154.69-9.18 156.24-12.25 156.24-16.45L156.24-16.45Q156.24-20.6 154.67-23.73 153.09-26.85 150.07-28.55 147.04-30.25 142.69-30.25ZM182.59 0.5L182.59 0.5Q178.39 0.5 175.14-1.38 171.89-3.25 170.01-6.53 168.14-9.8 168.14-14L168.14-14Q168.14-18.2 170.01-21.5 171.89-24.8 175.14-26.68 178.39-28.55 182.59-28.55L182.59-28.55Q186.79-28.55 190.06-26.68 193.34-24.8 195.21-21.5 197.09-18.2 197.09-14L197.09-14Q197.09-9.8 195.21-6.53 193.34-3.25 190.06-1.38 186.79 0.5 182.59 0.5ZM183.39-2L183.39-2Q187.44-2 189.74-4.95 192.04-7.9 192.04-12.75L192.04-12.75Q192.04-16.7 190.76-19.7 189.49-22.7 187.19-24.38 184.89-26.05 181.94-26.05L181.94-26.05Q177.94-26.05 175.56-23.13 173.19-20.2 173.19-15.4L173.19-15.4Q173.19-11.4 174.49-8.4 175.79-5.4 178.09-3.7 180.39-2 183.39-2ZM218.69 0.5L218.69 0.5Q214.34 0.5 210.91-1.3 207.49-3.1 205.54-6.25 203.59-9.4 203.59-13.35L203.59-13.35Q203.59-16.7 204.86-19.48 206.14-22.25 208.34-24.28 210.54-26.3 213.39-27.43 216.24-28.55 219.39-28.55L219.39-28.55Q221.54-28.55 223.06-28.28 224.59-28 225.81-27.5 227.04-27 228.24-26.45L228.24-26.45 228.44-19.3 227.64-19.3 224.74-24.35Q223.49-25.3 222.21-25.68 220.94-26.05 219.39-26.05L219.39-26.05Q216.24-26.05 213.81-24.5 211.39-22.95 210.01-20.25 208.64-17.55 208.64-14.15L208.64-14.15Q208.64-8.3 211.56-5.15 214.49-2 219.44-2L219.44-2Q220.99-2 222.19-2.23 223.39-2.45 224.49-3.05L224.49-3.05 228.09-8.4 228.89-8.4 228.44-1.65Q226.64-0.7 224.31-0.1 221.99 0.5 218.69 0.5Z" opacity="1" transform="matrix(1,0,0,1,0,0)" fill="#ffffff" class="undefined-text-0" data-fill-palette-color="primary" id="text-0"></path></svg></g></svg></g></svg></g></svg></g></svg></g></svg></g></svg></g></svg></g><defs></defs></svg><rect width="395.52" height="247.2" fill="none" stroke="none" visibility="hidden"></rect></g></svg></g></svg>